<svg xmlns="http://www.w3.org/2000/svg" viewBox="0 0 100 100"><rect width="100" height="100" rx="22" fill="#C8341B"/><g fill="#fff"><polygon points="97.00,50.00 79.78,46.34 79.78,53.66"/><polygon points="90.70,73.50 77.62,61.72 73.96,68.05"/><polygon points="73.50,90.70 68.05,73.96 61.72,77.62"/><polygon points="50.00,97.00 53.66,79.78 46.34,79.78"/><polygon points="26.50,90.70 38.28,77.62 31.95,73.96"/><polygon points="9.30,73.50 26.04,68.05 22.38,61.72"/><polygon points="3.00,50.00 20.22,53.66 20.22,46.34"/><polygon points="9.30,26.50 22.38,38.28 26.04,31.95"/><polygon points="26.50,9.30 31.95,26.04 38.28,22.38"/><polygon points="50.00,3.00 46.34,20.22 53.66,20.22"/><polygon points="73.50,9.30 61.72,22.38 68.05,26.04"/><polygon points="90.70,26.50 73.96,31.95 77.62,38.28"/><circle cx="50" cy="50" r="24.50"/></g></svg>